<svg xmlns="http://www.w3.org/2000/svg" viewBox="0 0 100 100">
  <defs>
    <style>
      .shield { fill: #4a9d5f; }
      .icon { fill: #1e3a5f; }
    </style>
  </defs>

  <!-- Shield shape matching the logo -->
  <path class="shield" d="M50 5 C35 5, 20 8, 15 12 L15 15 C15 20, 15 30, 15 40 C15 55, 20 70, 50 95 C80 70, 85 55, 85 40 C85 30, 85 20, 85 15 L85 12 C80 8, 65 5, 50 5 Z"/>

  <!-- Fork on the left -->
  <g class="icon">
    <!-- Fork handle -->
    <ellipse cx="30" cy="65" rx="3" ry="12"/>
    <rect x="27" y="35" width="6" height="32" rx="3"/>

    <!-- Fork tines -->
    <rect x="25" y="28" width="3" height="12" rx="1.5"/>
    <rect x="30" y="28" width="3" height="12" rx="1.5"/>
    <rect x="35" y="28" width="3" height="12" rx="1.5"/>
  </g>

  <!-- Leaf on the right -->
  <g class="icon">
    <!-- Leaf shape -->
    <path d="M55 35 Q75 35, 78 50 Q80 65, 70 72 Q65 75, 58 70 Q52 65, 50 58 Q48 50, 55 35 Z"/>

    <!-- Leaf vein (green line) -->
    <path d="M57 40 Q62 50, 65 62" stroke="#4a9d5f" stroke-width="2" fill="none" stroke-linecap="round"/>
  </g>
</svg>
