<svg xmlns="http://www.w3.org/2000/svg" viewBox="0 0 512 512">
  <defs>
    <style>
      .shield { fill: #3c9; }
      .icon { fill: #0a1929; }
    </style>
  </defs>

  <!-- Shield background with rounded corners -->
  <path class="shield" d="M256 32c-80 0-160 16-192 32v64c0 160 64 320 192 384 128-64 192-224 192-384V64c-32-16-112-32-192-32z"/>

  <!-- Fork (left side) -->
  <g class="icon" transform="translate(-20, 0)">
    <!-- Fork handle -->
    <path d="M200 360c0 12-8 20-20 20s-20-8-20-20V240c0-8 8-16 20-16s20 8 20 16v120z"/>

    <!-- Fork tines (3 prongs) -->
    <rect x="152" y="160" width="16" height="72" rx="8"/>
    <rect x="176" y="160" width="16" height="80" rx="8"/>
    <rect x="200" y="160" width="16" height="72" rx="8"/>
  </g>

  <!-- Leaf (right side) -->
  <g class="icon" transform="translate(40, -10)">
    <!-- Curved leaf shape -->
    <path d="M280 180c-10-20-20-30-20-30s40 10 80 50c30 30 45 70 40 100-5 25-25 45-50 50-30 5-60-5-80-30-15-20-20-40-15-60 5-25 25-50 45-80z"/>

    <!-- Leaf vein -->
    <path d="M285 195c10 15 20 35 25 55" stroke="#3c9" stroke-width="8" fill="none" stroke-linecap="round"/>
  </g>
</svg>
